<?xml version="1.0" encoding="utf-8"?>
<!-- Generator: Adobe Illustrator 22.0.0, SVG Export Plug-In . SVG Version: 6.00 Build 0)  -->
<svg version="1.1" id="Layer_1" xmlns="http://www.w3.org/2000/svg" xmlns:xlink="http://www.w3.org/1999/xlink" x="0px" y="0px"
	 viewBox="0 0 2151.7 611.9" style="enable-background:new 0 0 2151.7 611.9;" xml:space="preserve">
<g>
	<path d="M1232.1,373.2c-7.9,13.5-19.5,23-32.6,30.9c-35.6,21.4-74.1,7.4-93.3-24.4c-1.8-2.9-3.4-6-4.9-8.6
		c-5.8,8-11,16.4-17.4,23.7c-27.2,31.2-68.5,19.1-85.5-8.2c-4.7-7.5-7.4-16.1-11.1-24.3c-0.2,0.3-0.9,1.1-1.4,2
		c-12.6,21.8-29.4,38.9-54.2,45.9c-37.3,10.6-68.8-4.3-85.1-39.8c-3.5-7.5-6-15.5-8.9-23.2c-0.3-0.9-0.8-1.7-1.5-3.2
		c-3.4,7.2-6.3,13.9-9.7,20.4c-8.2,15.7-18.9,29.3-33.2,40c-19.6,14.8-43,10.6-58.8-1.8c-15.3-11.9-23.3-28.5-28-46.7
		c-2.9-11.2-4.3-22.9-6.3-34.3c-0.2-1.4-0.4-2.8-1.7-4.5c-0.8,1.5-1.6,2.9-2.3,4.4c-8.8,19.2-19.3,37.2-33.6,52.9
		c-26.6,29.3-59.9,42.1-99.1,40.5c-17.1-0.7-33.8-3.1-49.4-10.7c-18.8-9.2-21.8-19-10.6-36.5c2.7-4.3,6.1-8.4,9.8-11.8
		c6.2-5.7,11.8-6.1,19.2-1.9c4,2.3,7.8,5.1,11.7,7.7c2.9,1.9,5.8,4,8.8,5.8c21.6,12.9,44.1,0.7,45.8-24.6c1-14.3-4-26.4-11.8-37.8
		c-7.7-11.4-34.3-37.6-47-46.1c-4.9,8.1-9.7,16.2-14.6,24.2c-16.4,26.9-32.4,53.9-49.3,80.4c-9.6,15.1-21.6,28.5-36.3,38.8
		c-6.3,4.4-13.5,8.3-20.8,10.4c-19.2,5.6-34.8-2.7-42.3-21.8c-6.4-16.3-8.7-33.6-8.5-50.9c0.5-36.1,1.7-72.2,2.7-108.3
		c0.3-11.6,1.3-23.3,1.7-34.9c0.1-2.1-0.8-4.3-1.3-6.5c-2,1.1-4.5,1.9-6,3.5c-17.6,20.1-31.1,42.7-41.7,67.2
		c-17.7,40.9-29.7,83.6-38,127.4c-0.9,4.6-1,9.3-1.6,13.9c-0.9,7.4-3.1,10.8-10.3,11.2c-9.2,0.6-18.6,0.3-27.7-1
		c-8.4-1.1-13.8-7.3-15.3-15.3c-2-10.9-3.8-22.1-3.8-33.1c0.1-68.8,0.8-137.6,1.3-206.4c0-1.3,0-2.7,0.2-4
		c0.7-7.6,3.3-10.1,10.9-9.9c12.3,0.4,23.9,3.8,35.1,9c5,2.4,6.6,6.6,6.5,11.9c-0.5,38.3-0.9,76.6-1.3,114.9c0,0.8,0,1.6,0.9,2.8
		c0.7-1.5,1.4-2.9,1.9-4.5c10-30.9,20.8-61.4,37.2-89.7c6.6-11.4,14.3-22.1,24.5-30.7c19.9-16.5,39-18.8,61-5
		c4.1,2.6,8.2,5.1,12.2,7.9c8.6,5.9,12.9,14,12.5,24.6c-0.8,18.5-2,36.9-2.3,55.4c-0.5,32.3-0.6,64.6-0.5,96.9
		c0,5.4,1.3,10.9,2.8,16.1c2.3,7.7,7.8,9.6,13.6,4c7.2-7,14.4-14.5,19.6-23.1c18.6-31.1,36.4-62.8,54.3-94.3c0.7-1.2,0.5-4-0.5-5.1
		c-22.2-24.5-14.1-60.4,7.4-79.7c12.3-11,26.5-17,43.2-16.4c19.9,0.7,29.4,12.9,24.9,32.3c-4,17.7-13.8,32.3-24.8,46.2
		c-1,1.3-2.1,2.6-3.1,3.9c-0.2,0.2-0.2,0.6-0.5,1.7c6.6,5,13.5,10.1,20.3,15.3c14.5,11.2,29.4,21.9,43.2,33.9
		c13.8,11.9,23.4,27,26.1,45.3c1,6.3,0.2,12.9,0.1,19.4c0,1.8-0.5,3.5,0.4,6c1.6-1.5,3.2-3,4.7-4.6c16.8-18,30.3-38.1,36.6-62.2
		c2-7.8,2.9-16.1,3-24.2c0.3-38,0.1-76,0.3-113.9c0-4.8-1.6-5.8-6-5.9c-17.5-0.3-35-1-52.4-1.6c-6.3-0.2-8.3-2.3-8.6-8.5
		c-0.6-9.7,1.6-18.7,5.9-27.5c2.2-4.6,5.2-6.3,10.1-6.1c15.8,0.7,31.6,1.2,47.4,1.7c6.9,0.2,6.9,0.2,7.2-6.8
		c0.8-21.3,1.3-42.6,2.5-63.9c0.7-11.9,6.3-16.5,17.9-14.1c12.8,2.7,25.3,6.8,37.8,10.6c5,1.5,7.1,5.2,6.8,10.7
		c-1.1,20.3-1.8,40.6-2.9,60.9c-0.2,4.4,1.8,5,5.2,5.2c21.3,1.2,42.6,2.5,63.8,3.7c13.5,0.8,15.7,3.4,13.6,16.8
		c-0.3,2-0.8,3.9-1.4,5.8c-4.1,12.3-5.6,13.5-18.3,13.7c-19.5,0.4-38.9,0.7-58.4,0.8c-4.1,0-5.9,0.9-6,5.5
		c-0.6,22.1-1.7,44.3-2.4,66.4c-1,33.6-2,67.3-2.3,100.9c-0.2,15.8,1.5,31.6,6.8,46.7c1.7,4.8,4.1,9.5,7.1,13.6
		c4.7,6.5,10.8,8,17.4,3.5c6.2-4.3,12.3-9.4,16.8-15.4c13.6-17.9,22.6-38.1,25.5-60.5c1.5-11.4,0.9-23,1.9-34.4
		c2.9-32.1,10.2-62.8,30-89.2c17.5-23.3,40.4-35.6,70.4-31.9c16.8,2.1,29.2,11.3,39.7,23.8c1.1,1.4,2.2,2.7,4.4,3.8
		c0-2.4-0.1-4.8,0-7.2c0.3-6.7,3.6-10.8,10.1-11.6c14.3-1.7,27.9,1.3,40.4,8.3c5.2,2.9,6.6,7.8,6.5,13.6c-1.2,41.4-2.6,82.9-3,124.4
		c-0.1,18.6,1.7,37.2,3.5,55.7c0.6,6.5,3,13,5.8,18.9c5.5,11.2,17.9,14.1,27.8,6.4c4.7-3.7,8.8-8.7,11.8-13.9
		c6.8-12,8.7-24.8,7.3-38.9c-4.1-42-0.9-83.5,14.5-123.3c7.6-19.7,18.3-37.4,36.1-49.8c29.4-20.3,67.7-13.5,88.3,15.7
		c0.6,0.8,1.3,1.4,2.4,2.7c0.2-3.5,0.1-6.4,0.5-9.2c0.8-6.4,4.1-10.2,10.5-10.9c14.7-1.6,28.5,1.5,41.2,9.1c3.8,2.3,4.9,6,4.8,10.3
		c-0.4,28.8-0.8,57.6-1.2,86.4c-0.4,28.5-0.8,57-1.1,85.4c0,1.1,0.2,2.2,0.4,4c1.1-1,1.8-1.3,2.2-1.9c24.2-35,44.1-72.1,56.1-113.1
		c1.5-5.1,2.6-10.3,4.3-15.4c1-3,0.4-4.9-2.1-6.9c-23.5-18.5-14.8-57,5.1-68.1c11.2-6.2,23-7.7,35.1-3.2c7.6,2.8,11.7,9,12.4,16.7
		c0.7,7.4,0.1,14.8,0.1,23.1c7.6-1.4,15.5-2.8,23.4-4.2c11.3-2,22.6-4.4,33.9-5.8c5.8-0.7,12-0.2,17.8,1.1
		c12,2.8,19.6,13.3,17.9,26.4c-1.7,13.6-5,27.1-7.9,40.6c-7.3,33.8-12.7,67.8-7.7,102.5c1.8,12.6,4.6,24.9,12.5,35.4
		c8.6,11.3,22.3,12.4,32.5,2.4c8.6-8.4,13.4-19,14.8-30.4c0.9-7.1-2.1-14.7-3-22.1c-3.5-27.2-2.2-54.1,2.8-81
		c4.1-21.9,11.1-42.8,23.2-61.7c11.1-17.3,25.2-31.5,45.6-36.7c26.6-6.8,49.4,0,67,21.8c1,1.3,2.1,2.6,3.2,3.8
		c0.2,0.2,0.6,0.2,1.3,0.6c0-2.9-0.2-5.7,0-8.4c0.5-6,4-10,10-10.7c14.3-1.7,27.8,1.3,40.4,8.2c4.7,2.6,6.5,6.9,6.4,12.1
		c-1,37.6-2.3,75.2-3,112.9c-0.5,25.5-0.5,51,5.2,76.1c1.1,4.9,3.1,9.9,5.8,14.2c5.6,8.9,16.2,10.4,24.8,4.2
		c7.8-5.7,12.9-13.7,16.4-22.3c4.9-12.1,8.8-24.7,12.8-37.2c1-3.2,0.6-6.9,0.7-10.4c0.4-50,0.7-99.9,1.1-149.9
		c0.1-10.4,2.5-13.4,12.7-12.1c11.4,1.4,22.6,4,33.7,6.8c5.6,1.4,8,5.9,8,12.4c0,27.8,0,55.7,0,83.5c0,1.6,0,3.2,0,4.8
		c0.4,0.1,0.9,0.2,1.3,0.3c2.1-6.3,4.1-12.7,6.4-18.9c8.8-23.7,17.7-47.3,26.7-70.9c0.5-1.4,1.3-2.7,2-4
		c7.3-13.8,13.6-17.1,28.8-13.5c7.9,1.9,15.6,4.8,22.9,8.3c11,5.4,16,14.9,16.5,27.1c1,30.3,2.1,60.6,3.3,90.8
		c0.3,6.6,1,13.3,1.6,19.9c0.1,1.4,0.5,2.8,0.8,4.2c0.4,0,0.9,0.1,1.3,0.1c0.4-1.6,0.9-3.2,1.2-4.8c6.7-43.5,20.3-85,36.6-125.6
		c0.9-2.2,1.9-4.3,2.9-6.4c5.8-12.2,12.6-16.2,26-13.9c12.6,2.2,24.4,6.7,35.3,13.4c9.1,5.6,13.2,14,12.8,24.8
		c-1.1,36-2.3,71.9-2.7,107.9c-0.2,21.1,0.8,42.4,7.2,62.7c1.9,6.1,5,12.1,8.7,17.2c7.7,10.8,20.3,10.9,27.2-0.4
		c5-8.2,8-17.8,11.3-27c2.4-6.9,3.7-14.2,5.7-21.2c1.8-6.4,5.3-9,10.5-8.4c4.7,0.6,7.7,4.3,7.9,10.5c0.6,14.2-2.6,27.8-6.6,41.2
		c-3.2,10.5-6.9,20.9-14.2,29.4c-21.3,24.9-57.2,24.7-80.3-0.3c-11.8-12.7-18.1-28.2-21.8-44.8c-7.5-32.9-7.3-66.4-7-99.9
		c0.1-12.5,0.6-25,0.9-37.5c0-1.4-0.2-2.7-0.3-4.1c-0.4-0.1-0.9-0.2-1.3-0.3c-0.8,1.3-1.7,2.6-2.3,4
		c-17.5,37.5-29.5,76.6-35.5,117.5c-2.4,16.1-2.9,32.5-3.9,48.8c-0.5,8.1-1.6,10.2-9.2,12.8c-19.4,6.7-40.3-2-47-21.4
		c-4.4-12.8-7.5-26.4-8.7-39.8c-3.4-37.6-5.6-75.4-8.3-113c-0.1-1.9-1.4-3.8-2.1-5.6c-1.5,1.3-3.5,2.4-4.5,4
		c-12.6,20.8-20,43.7-26.9,66.9c-9.9,32.7-11.9,66.4-12.7,100.2c-0.1,5.7-0.1,11.3-0.3,17c-0.3,7.2-3.6,11.3-10.8,13.1
		c-12.3,2.9-24.5,2-36.5-1.7c-15.8-4.9-15.7-5-16.2-21.5c-0.2-4.9-0.4-9.8-1.2-15.1c-11.7,25.6-28.4,43.9-59.2,39.4
		c-29.3-4.2-44.5-23.4-51-51.4c-3.6,5.5-6.7,10.7-10.4,15.6c-13.8,18.6-31.5,31.4-54.7,35.5c-28.8,5.1-53.8-5.8-69.5-30.5
		c-1.5-2.4-2.9-4.8-4.8-7.9c-1,1.7-1.6,2.9-2.3,4.1c-9.3,17.1-22.1,30.1-41.8,34.3c-17.1,3.7-32.9-0.2-46.5-11.1
		c-18-14.4-28.8-33.2-33.3-55.8c-5.8-29.3-4.8-58.7-0.2-87.9c2.3-14.6,5.5-29.1,8.4-43.6c1-5.2-0.1-6.9-5.4-6.8
		c-11.3,0.1-22.7,0.3-34,0.9c-1.6,0.1-3.9,2-4.5,3.5c-17.6,50.9-42.8,97.8-74.5,141.2c-7.7,10.6-16.5,20.5-24.5,30.9
		c-1.6,2-2.8,5-2.8,7.5c0.3,24.1,1.5,48.3,1.2,72.4c-0.4,30.1-3.1,60-14.3,88.3c-11,27.7-30.8,46.9-59.8,55.2
		c-31.8,9-67.5-4.4-84.2-31c-8.8-14-10.2-29.4-6.9-45.2c5.1-24.4,18.8-44,36-61.1c17.4-17.2,35.7-33.5,53.6-50.1
		c6.8-6.3,13.8-12.6,20.6-19c1.2-1.2,2.6-3,2.7-4.5c0.3-7.4,0.1-14.9,0.1-22.3C1233.2,373.5,1232.7,373.3,1232.1,373.2z
		 M889.5,293.1c0.4,6.4,0.7,16.2,1.7,26c1.7,15.6,4.7,30.9,13.1,44.7c6.8,11.3,17.2,16.9,27.4,13.3c6.3-2.2,12.5-6.4,17.2-11.2
		c11-11.2,16.5-25.6,20.7-40.4c7.8-28.1,9.1-56.8,6.8-85.7c-1.2-14.6-3.9-29.1-11.8-41.9c-11.3-18.5-32-21.5-47.9-7
		c-7.6,6.9-12.1,15.8-15.6,25.2C892.2,239.8,890.3,264.7,889.5,293.1z M1587.1,291.1c1.4,13.7,2.3,27.5,4.3,41.2
		c1.8,12.4,5.6,24.3,13.3,34.6c5.1,6.9,11.6,11.5,20.6,11.1c9.8-0.4,16.7-6,22.7-13c13.6-15.8,19.6-34.9,23.3-54.9
		c4.5-24.2,5.6-48.6,2.9-73.1c-1.6-14.5-4.3-28.7-12.7-41.1c-11.7-17.1-32.5-19-47.3-4.6c-7.9,7.7-12.4,17.2-15.9,27.4
		C1590.2,242.1,1588,266.4,1587.1,291.1z M1229.8,261.3c0-5.7,0.3-11.3,0-17c-0.7-14-2.1-27.9-7.6-41c-4.7-11.2-12-19.6-25-21
		c-13.3-1.5-22.7,5.1-30.2,15c-9.5,12.7-14.2,27.4-17.6,42.6c-7.1,31.9-9.3,63.9-2.2,96.1c3,13.5,7.8,26.2,18.1,36
		c8,7.6,17.3,8.7,27.1,3.4c12.1-6.6,18.7-17.8,23.7-29.9C1227.4,318.5,1229.4,290,1229.8,261.3z M1235.5,438
		c-5.2,5.5-9.8,10.4-14.5,15.3c-15.9,16.6-31.7,33.2-43.9,52.9c-8.3,13.4-15,27.4-16.5,43.4c-1.3,14.4,4.8,26.1,16.8,31.7
		c11.3,5.3,25.2,2.4,34.8-7.3c10.6-10.7,14.9-24.5,18.2-38.7c7.1-31.3,6.1-63.2,5.9-94.9C1236.3,439.9,1236,439.4,1235.5,438z"/>
	<path d="M176.2,195.3c0,46.5,0.3,93-0.1,139.5c-0.2,23.1-1.9,46.3-9.7,68.4c-8.2,23.2-21,43.1-43.2,55.4c-4.5,2.5-10,3.6-15.2,4.3
		c-5.4,0.7-7.9-2.5-7-8.1c0.7-3.9,1.7-7.8,3.1-11.6c8.2-23.3,11.5-47.4,11.5-72.1c0.2-60.1,0.6-120.3,1-180.4
		c0.3-47,0.7-94,1.1-140.9c0-1.3,0.1-2.7-0.1-4c-0.4-4.5-3-5.9-6.2-2.7c-6.5,6.4-13.4,12.7-18.6,20.1C68.6,98.5,57,137.6,59.3,180.5
		c1,18.7,6.5,35.9,17.6,51.2c0.5,0.7,1,1.4,1.4,2.1c2.3,4.1,3.8,8.4,0.9,12.6c-2.9,4.3-7.5,3.3-11.4,2.2
		c-20.2-5.9-35.9-18.1-47-35.8C7.5,191.8,4.4,168.6,9.6,144.6C22.1,88,54.3,45.3,102.4,13.9c24.4-15.9,47.7-10.3,68.3,4.3
		c4.7,3.3,5.7,8.1,5.7,13.6c-0.1,54.5-0.1,109-0.1,163.5C176.3,195.3,176.3,195.3,176.2,195.3z"/>
</g>
</svg>
